<?xml version="1.0" encoding="utf-8"?>
<!-- Generator: Adobe Illustrator 29.5.1, SVG Export Plug-In . SVG Version: 9.03 Build 0)  -->
<svg version="1.1" xmlns="http://www.w3.org/2000/svg" xmlns:xlink="http://www.w3.org/1999/xlink" x="0px" y="0px"
	 viewBox="0 0 1024 1024" style="enable-background:new 0 0 1024 1024;" xml:space="preserve">
<g>
</g>
<g id="_x32___x2013__Layer">
	
		<path id="path4237_00000026124683953864343750000016017961496750918028_" style="fill-rule:evenodd;clip-rule:evenodd;fill:#FFFFFF;" d="
		M372.5063171,799.989502c0,0,34.3647461,2.4310303,78.5734558-1.4651489
		c17.9034424-1.5778809,85.8778687-8.2545776,136.6980591-19.3997803c0,0,61.9620972-13.2606812,95.111084-25.4767456
		c34.6850586-12.7821655,53.5595093-23.6306152,62.0550537-39.0026245
		c-0.3704834-3.1496582,2.6156616-14.3186646-13.3795776-21.0276489
		c-40.8939209-17.1522827-88.3210449-14.0498047-182.1676025-16.0396118
		c-104.0721741-3.5758667-138.6928406-20.9959717-157.1351318-35.026123
		c-17.684906-14.2330322-8.7920532-53.6098022,66.9836426-88.2948608
		c38.1704407-18.4702148,187.8027344-52.5555725,187.8027344-52.5555725
		C596.654541,476.79245,502.686615,433.0033569,483.370575,423.5474548
		c-16.9413452-8.2932434-44.0525513-20.7805176-49.9293213-35.8884583
		c-6.6629944-14.5040894,15.7356873-26.9981689,28.2473755-30.5761108
		c40.295166-11.6229553,97.1795959-18.8469849,148.9510803-19.65802
		c26.0230713-0.4076843,30.2471313-2.0819702,30.2471313-2.0819702
		c35.9069214-5.9562378,59.5446777-30.5228271,49.696167-69.4289856
		c-8.8413696-39.7130585-55.4712524-63.0480194-99.7834473-54.969696
		c-41.7286987,7.6074066-142.305603,36.8222961-142.305603,36.8222961
		c124.3205566-1.0759888,145.128479,0.9989471,154.4215698,13.9920044
		c5.4881592,7.6733093-2.4938354,18.1946411-35.6495972,23.6097107
		c-36.0961914,5.8952942-111.130249,12.994812-111.130249,12.994812
		c-71.9815063,4.2748718-122.6852112,4.5609741-137.8925171,36.7580261
		c-9.9350281,21.0346985,10.594696,39.6309509,19.592865,51.2712708
		c38.0246887,42.287262,92.9489441,65.0939331,128.3027649,81.888916
		c13.302124,6.3191833,52.3320312,18.2527771,52.3320312,18.2527771
		c-114.6940308-6.3082581-197.4300537,28.9101868-245.9623718,69.4593811
		c-54.8916931,50.7720947-30.6092529,111.2909546,81.8486633,148.5540161
		c66.4221497,22.0090942,99.3632812,32.3599243,198.4419556,23.4379272
		c58.3583374-3.1455078,67.5579834-1.2736206,68.1398315,3.5149536c0.8190918,6.7418823-64.819397,23.4889526-82.7393188,28.6578979
		C492.6109314,773.3081055,373.1045837,799.8606567,372.5063171,799.989502z"/>
</g>
</svg>
