<?xml version="1.0" encoding="utf-8"?>
<!-- Generator: Adobe Illustrator 29.5.1, SVG Export Plug-In . SVG Version: 9.03 Build 0)  -->
<svg version="1.1" xmlns="http://www.w3.org/2000/svg" xmlns:xlink="http://www.w3.org/1999/xlink" x="0px" y="0px"
	 viewBox="0 0 1024 1024" style="enable-background:new 0 0 1024 1024;" xml:space="preserve">
<g>
</g>
<g id="_x33___x2013__Layer">
	
		<path id="path4237_00000016047026224631770190000001721247903746509970_" style="fill-rule:evenodd;clip-rule:evenodd;fill:#FFFFFF;" d="
		M337.803009,871.6356812c0,0,42.914032,3.0358276,98.1210327-1.8297119
		c22.3574219-1.9703979,107.2425842-10.3081055,170.7058411-24.2260132c0,0,77.3770142-16.5596924,118.7728271-31.8148193
		c43.3140869-15.9621582,66.8840942-29.5095215,77.4931641-48.7058105
		c-0.4626465-3.9331665,3.2664185-17.8807983-16.7081909-26.2588501
		c-51.0674438-21.4194946-110.2935791-17.545166-227.4873047-20.0299072
		c-129.9632874-4.4655151-173.1969299-26.2194214-196.2272644-43.7399902
		c-22.0845947-17.7739258-10.9793701-66.9468994,83.6478577-110.2609253
		c47.6664734-23.0652466,234.524353-65.6303406,234.524353-65.6303406
		c-62.9303589-31.1058044-180.2757263-85.7887878-204.3972168-97.5971375
		c-21.1560059-10.3564148-55.0119629-25.9502869-62.3507385-44.816803
		c-8.3206177-18.1123962,19.6504211-33.7147827,35.2747803-38.1828308
		c50.3197937-14.5145264,121.3559875-23.5357666,186.0071716-24.5485535
		c32.4971313-0.5091248,37.7720337-2.5999451,37.7720337-2.5999451
		c44.8398438-7.4380493,74.3582764-38.1162872,62.0595703-86.7015533
		c-11.0408936-49.5928802-69.2714233-78.7331314-124.6075439-68.6450958
		c-52.1099854,9.4999847-177.7084961,45.9829712-177.7084961,45.9829712
		c155.2490845-1.3436584,181.2335815,1.247467,192.8386841,17.4729462
		c6.8535156,9.5823059-3.1142578,22.7211151-44.5185547,29.4833374
		c-45.0762329,7.3619537-138.7772827,16.2276917-138.7772827,16.2276917
		c-89.8890991,5.3383484-153.2069092,5.6956482-172.1975098,45.9026947
		c-12.4066467,26.2677307,13.2304688,49.4903564,24.4672241,64.0265503
		c47.4844666,52.8075256,116.0728149,81.2880554,160.2219849,102.261322
		c16.6114502,7.8912659,65.3512573,22.7937012,65.3512573,22.7937012
		c-143.2276917-7.8776245-246.5468445,36.102478-307.1530762,86.739502
		c-68.5476685,63.4031982-38.2242432,138.9779663,102.2110138,185.5114136
		c82.9467163,27.484436,124.0829468,40.4104004,247.8103943,29.2687378
		c72.87677-3.9280396,84.3651123-1.5904541,85.0917358,4.3894043c1.0228882,8.4191284-80.9452515,29.3325806-103.3232422,35.7874756
		C487.7872925,838.3164673,338.5501099,871.4747925,337.803009,871.6356812z"/>
</g>
</svg>
